<svg width="9" height="10" viewBox="0 0 9 10" fill="none" xmlns="http://www.w3.org/2000/svg">
<path d="M6.73075 9.1538H2.49999C2.03267 9.1538 1.65383 8.77496 1.65383 8.30765V2.80765H0.807678V1.96149H2.49999V1.53841C2.49999 1.0711 2.87882 0.692261 3.34614 0.692261H5.8846C6.35192 0.692261 6.73075 1.0711 6.73075 1.53841V1.96149H8.42306V2.80765H7.57691V8.30765C7.57691 8.77496 7.19807 9.1538 6.73075 9.1538ZM2.49999 2.80765V8.30765H6.73075V2.80765H2.49999ZM3.34614 1.53841V1.96149H5.8846V1.53841H3.34614ZM5.8846 7.46149H5.03845V3.6538H5.8846V7.46149ZM4.19229 7.46149H3.34614V3.6538H4.19229V7.46149Z" fill="#2D2D2D"/>
</svg>
