<svg width="13" height="13" viewBox="0 0 13 13" fill="none" xmlns="http://www.w3.org/2000/svg">
<path d="M10.1167 10.6204L7.02111 7.52427C5.64402 8.50331 3.74643 8.26383 2.65575 6.97335C1.56507 5.68288 1.64516 3.77192 2.83999 2.57723C4.0345 1.38201 5.94565 1.30158 7.23637 2.3922C8.52708 3.48282 8.7667 5.38059 7.78757 6.75781L10.8832 9.85398L10.1173 10.6199L10.1167 10.6204ZM5.13774 2.7083C4.11058 2.70807 3.2244 3.42909 3.01575 4.43484C2.80709 5.44058 3.33329 6.45462 4.27577 6.86302C5.21825 7.27142 6.31798 6.96192 6.90912 6.12192C7.50027 5.28191 7.42036 4.14227 6.71778 3.39298L7.04549 3.71798L6.67607 3.34964L6.66957 3.34314C6.26429 2.93536 5.71266 2.70675 5.13774 2.7083Z" fill="#2D2D2D"/>
</svg>
