<svg width="9" height="9" viewBox="0 0 9 9" fill="none" xmlns="http://www.w3.org/2000/svg">
<g clip-path="url(#clip0_16_24)">
<path d="M7.12503 7.49998H2.25003C1.07792 7.50068 0.101614 6.60143 0.00616556 5.43321C-0.0892832 4.26499 0.728101 3.21918 1.88478 3.02961C2.41717 2.08569 3.41632 1.5013 4.50003 1.49996C5.17579 1.49741 5.8322 1.72547 6.36078 2.14648C6.87981 2.55818 7.24882 3.12935 7.41078 3.77173C8.37974 3.92062 9.07045 4.7908 8.99554 5.76827C8.92062 6.74574 8.10537 7.5005 7.12503 7.49998ZM4.50003 2.24998C3.68692 2.25094 2.93728 2.68952 2.53803 3.39786L2.36253 3.71248L2.00665 3.77061C1.23801 3.89938 0.696033 4.59534 0.759484 5.37211C0.822936 6.14888 1.47068 6.74766 2.25003 6.74998H7.12503C7.71325 6.75059 8.20263 6.29796 8.24786 5.71148C8.29309 5.12501 7.87888 4.60269 7.29753 4.51311L6.80403 4.43811L6.68328 3.95361C6.43401 2.95116 5.533 2.24809 4.50003 2.24998ZM5.04378 5.99998H3.95628V4.87498H3.00003L4.50003 3.37498L6.00003 4.87498H5.04378V5.99998Z" fill="#2D2D2D"/>
</g>
<defs>
<clipPath id="clip0_16_24">
<rect width="9" height="9" fill="white"/>
</clipPath>
</defs>
</svg>
